<svg width="50" height="50" viewBox="0 0 50 50" fill="none" xmlns="http://www.w3.org/2000/svg">
<path d="M9.97024 10.4167H37.9691C40.813 10.4167 42.8213 13.2029 41.9219 15.9009L38.4497 26.3176C37.8825 28.019 36.2903 29.1667 34.4968 29.1667H12.6488M9.97024 10.4167L9.88608 9.82741C9.59284 7.77471 7.83483 6.25 5.76129 6.25H4.16669M9.97024 10.4167L12.6488 29.1667M12.6488 29.1667L13.0306 31.8393C13.3239 33.892 15.0819 35.4167 17.1554 35.4167H35.4167M35.4167 35.4167C33.1155 35.4167 31.25 37.2821 31.25 39.5833C31.25 41.8845 33.1155 43.75 35.4167 43.75C37.7179 43.75 39.5834 41.8845 39.5834 39.5833C39.5834 37.2821 37.7179 35.4167 35.4167 35.4167ZM22.9167 39.5833C22.9167 41.8845 21.0512 43.75 18.75 43.75C16.4488 43.75 14.5834 41.8845 14.5834 39.5833C14.5834 37.2821 16.4488 35.4167 18.75 35.4167C21.0512 35.4167 22.9167 37.2821 22.9167 39.5833Z" stroke="#484D6D" stroke-width="3" stroke-linecap="round" stroke-linejoin="round"/>
</svg>
