<svg width="50" height="50" viewBox="0 0 50 50" fill="none" xmlns="http://www.w3.org/2000/svg">
<path d="M37.5 38.9631C37.5 32.6471 30.2083 31.25 25 31.25C19.7917 31.25 12.5 32.6471 12.5 38.9631M43.75 25C43.75 35.3553 35.3553 43.75 25 43.75C14.6447 43.75 6.25 35.3553 6.25 25C6.25 14.6447 14.6447 6.25 25 6.25C35.3553 6.25 43.75 14.6447 43.75 25ZM31.25 18.75C31.25 22.2018 28.4518 25 25 25C21.5482 25 18.75 22.2018 18.75 18.75C18.75 15.2982 21.5482 12.5 25 12.5C28.4518 12.5 31.25 15.2982 31.25 18.75Z" stroke="#484D6D" stroke-width="3" stroke-linecap="round" stroke-linejoin="round"/>
</svg>
